HIERARCHY
ROOT Hips
{
	OFFSET 0.00 0.00 0.00
	CHANNELS 6 Xposition Yposition Zposition Xrotation Yrotation Zrotation
	JOINT Spine
	{
		OFFSET 0.00000 7.06766 0.00000
		CHANNELS 3 Xrotation Yrotation Zrotation
		JOINT Head
		{
			OFFSET 0.00000 15.03989 0.00000
			CHANNELS 3 Xrotation Yrotation Zrotation
			End Site
			{
				OFFSET 0.00000 4.52755 0.00000
			}
		}
		JOINT LeftShoulder
		{
			OFFSET 0.00000 10.53037 0.00000
			CHANNELS 3 Xrotation Yrotation Zrotation
			JOINT LeftArm
			{
				OFFSET 7.02886 0.00000 0.00000
				CHANNELS 3 Xrotation Yrotation Zrotation
				JOINT LeftForeArm
				{
					OFFSET 10.79770 0.00000 0.00000
					CHANNELS 3 Yrotation Zrotation Xrotation
					JOINT LeftHand
					{
						OFFSET 7.90744 0.00000 0.00000
						CHANNELS 3 Xrotation Yrotation Zrotation
						JOINT LeftHandThumb1
						{
							OFFSET 0.00000 0.00000 0.00000
							CHANNELS 3 Xrotation Zrotation Yrotation
							End Site
							{
								OFFSET 0.00000 0.00000 3.93700
							}
						}
						End Site
						{
							OFFSET 3.93700 0.00000 0.00000
						}
					}
				}
			}
		}
		JOINT RightShoulder
		{
			OFFSET 0.00000 10.53037 0.00000
			CHANNELS 3 Xrotation Yrotation Zrotation
			JOINT RightArm
			{
				OFFSET -7.02886 0.00000 0.00000
				CHANNELS 3 Xrotation Yrotation Zrotation
				JOINT RightForeArm
				{
					OFFSET -10.79770 0.00000 0.00000
					CHANNELS 3 Yrotation Zrotation Xrotation
					JOINT RightHand
					{
						OFFSET -7.90744 0.00000 0.00000
						CHANNELS 3 Xrotation Yrotation Zrotation
						JOINT RightHandThumb1
						{
							OFFSET 0.00000 0.00000 0.00000
							CHANNELS 3 Xrotation Zrotation Yrotation
							End Site
							{
								OFFSET 0.00000 0.00000 3.93700
							}
						}
						End Site
						{
							OFFSET -3.93700 0.00000 0.00000
						}
					}
				}
			}
		}
	}
	JOINT LeftUpLeg
	{
		OFFSET 4.01300 0.00000 0.00000
		CHANNELS 3 Xrotation Yrotation Zrotation
		JOINT LeftLeg
		{
			OFFSET 0.00000 -16.89976 0.00000
			CHANNELS 3 Xrotation Yrotation Zrotation
			JOINT LeftFoot
			{
				OFFSET 0.00000 -17.38918 0.00000
				CHANNELS 3 Xrotation Yrotation Zrotation
				JOINT LeftToeBase
				{
					OFFSET 0.00000 -1.27456 4.75673
					CHANNELS 3 Xrotation Yrotation Zrotation
					End Site
					{
						OFFSET 0.00000 0.00000 2.95275
					}
				}
			}
		}
	}
	JOINT RightUpLeg
	{
		OFFSET -4.01300 0.00000 0.00000
		CHANNELS 3 Xrotation Yrotation Zrotation
		JOINT RightLeg
		{
			OFFSET 0.00000 -16.89976 0.00000
			CHANNELS 3 Xrotation Yrotation Zrotation
			JOINT RightFoot
			{
				OFFSET 0.00000 -17.38918 0.00000
				CHANNELS 3 Xrotation Yrotation Zrotation
				JOINT RightToeBase
				{
					OFFSET 0.00000 -1.27456 4.75673
					CHANNELS 3 Xrotation Yrotation Zrotation
					End Site
					{
						OFFSET 0.00000 0.00000 2.95275
					}
				}
			}
		}
	}
}
MOTION
Frames: 10
Frame Time: 0.008333
 19.2949 29.7168 -16.2697 99.6275 -3.7955 152.0479 60.9917 -8.8917 -28.3944 -131.0521 -32.3487 -144.1671 -44.3993 -18.4355 -4.8671 -23.3659 -16.5139 -21.8688 -83.1487 0.0000 -83.5621 -0.5182 -4.5575 -6.4934 33.1476 -0.0000 26.2537 -15.8632 37.2284 -45.5070 -61.8249 38.4184 28.4332 66.4411 0.0000 34.2061 0.2716 -0.5539 26.1183 32.8623 0.0000 -24.3270 -91.4553 -25.8689 26.9897 4.2474 0.0000 -0.0000 -10.7107 13.9568 -16.8037 34.5986 0.0000 -0.0000 -73.4346 -25.5378 -28.8836 -6.8572 0.0000 -0.0000 -5.6583 -25.0504 25.7889 27.8581 0.0000 -0.0000
 19.2798 29.7185 -16.2423 99.5724 -3.9331 152.2064 60.8870 -8.9875 -28.2300 -130.9188 -32.2773 -144.0057 -44.3106 -18.3736 -4.9041 -23.3026 -16.4913 -21.9299 -82.9675 0.0000 -83.6499 -0.5503 -4.6225 -6.7970 33.1476 -0.0000 26.2537 -15.8115 37.3181 -45.5887 -61.6348 38.5711 28.4776 66.1883 0.0000 34.2321 0.2636 -0.5389 26.0640 32.8623 0.0000 -24.3270 -91.5835 -25.7977 26.7566 4.3815 -0.0000 -0.0000 -10.6188 14.1531 -16.9565 34.5774 -0.0000 -0.0000 -73.5652 -25.3581 -29.1542 -6.8128 0.0000 -0.0000 -5.6302 -25.0652 25.8486 27.8863 0.0000 -0.0000
 19.2815 29.7167 -16.2440 99.6554 -3.9300 152.2793 60.8830 -8.9482 -28.2902 -131.0897 -32.2944 -144.0796 -44.2847 -18.3792 -4.8619 -23.2061 -16.5028 -21.9492 -82.7874 0.0000 -83.6884 -0.5581 -4.7495 -6.7095 33.1476 -0.0000 26.2537 -15.9238 37.4240 -45.5392 -61.4244 38.6699 28.5141 65.9580 0.0000 34.2643 0.2484 -0.5087 26.0265 32.8623 0.0000 -24.3270 -91.5248 -25.6982 26.8095 4.4120 -0.0000 -0.0000 -10.6052 14.1115 -17.0130 34.6142 0.0000 -0.0000 -73.5009 -25.3469 -29.1313 -6.8531 -0.0000 0.0000 -5.6244 -24.9877 25.8589 27.9023 0.0000 -0.0000
 19.2828 29.7158 -16.2418 99.7184 -3.9262 152.3482 60.8596 -8.9007 -28.3251 -131.2559 -32.2793 -144.1457 -44.2692 -18.3724 -4.8473 -23.0810 -16.5363 -21.9354 -82.6022 0.0000 -83.7876 -0.5663 -4.7377 -6.8245 33.1476 -0.0000 26.2537 -15.9717 37.4920 -45.5427 -61.2934 38.7447 28.5843 65.7376 0.0000 34.3108 0.2324 -0.4767 25.9918 32.8623 0.0000 -24.3270 -91.4638 -25.6326 26.8597 4.4245 0.0000 -0.0000 -10.5859 14.0877 -17.0802 34.6302 0.0000 -0.0000 -73.4382 -25.2833 -29.1152 -6.8833 0.0000 0.0000 -5.6041 -24.9763 25.8861 27.9261 -0.0000 0.0000
 19.2817 29.7156 -16.2412 99.7757 -3.9418 152.4167 60.8658 -8.8542 -28.3428 -131.4678 -32.2427 -144.2806 -44.2616 -18.3789 -4.8420 -22.9703 -16.5709 -21.9214 -82.4242 0.0000 -83.8346 -0.5674 -4.6823 -6.9172 33.1476 -0.0000 26.2537 -16.0892 37.6504 -45.5076 -61.0214 38.7610 28.6018 65.5721 0.0000 34.2753 0.2239 -0.4601 25.9474 32.8623 0.0000 -24.3270 -91.3691 -25.5852 26.8953 4.3985 0.0000 -0.0000 -10.5640 14.0829 -17.1183 34.5849 -0.0000 0.0000 -73.4004 -25.2440 -29.1315 -6.8957 -0.0000 -0.0000 -5.5735 -24.9259 25.9288 27.8552 0.0000 -0.0000
 19.2776 29.7155 -16.2374 99.8003 -3.9733 152.4960 60.8711 -8.8224 -28.3312 -131.6283 -32.2342 -144.3477 -44.2446 -18.3805 -4.8540 -22.8609 -16.6159 -21.8918 -82.2909 0.0000 -83.8484 -0.5361 -4.5171 -6.7749 33.1476 -0.0000 26.2537 -16.2091 37.7842 -45.4421 -60.7161 38.8508 28.5571 65.3904 0.0000 34.2019 0.2160 -0.4452 25.8801 32.8623 0.0000 -24.3270 -91.3064 -25.5419 26.8901 4.3792 0.0000 0.0000 -10.5682 14.1070 -17.1389 34.5821 0.0000 -0.0000 -73.3979 -25.1682 -29.1928 -6.8871 -0.0000 -0.0000 -5.5580 -24.9126 25.9914 27.8960 -0.0000 -0.0000
 19.2777 29.7152 -16.2394 99.8383 -3.9706 152.5656 60.8675 -8.7940 -28.3849 -131.8054 -32.2650 -144.4550 -44.2755 -18.4192 -4.8236 -22.6916 -16.6099 -21.8328 -82.1722 0.0000 -83.9074 -0.5352 -4.4641 -6.8431 33.1476 -0.0000 26.2537 -16.3382 37.9404 -45.3826 -60.4262 38.8382 28.5277 65.2893 0.0000 34.1649 0.2066 -0.4268 25.8267 32.8623 0.0000 -24.3270 -91.2178 -25.4829 26.9373 4.3376 -0.0000 -0.0000 -10.5654 14.0401 -17.1097 34.4877 -0.0000 0.0000 -73.3843 -25.1063 -29.2005 -6.8734 -0.0000 0.0000 -5.5466 -24.9046 26.0289 27.9463 -0.0000 -0.0000
 19.2788 29.7154 -16.2458 99.8780 -3.9689 152.6108 60.8918 -8.7446 -28.4386 -131.9939 -32.3007 -144.6093 -44.2676 -18.4769 -4.7804 -22.5539 -16.6145 -21.7503 -82.0451 0.0000 -83.9635 -0.5447 -4.4024 -7.0603 33.1476 -0.0000 26.2537 -16.4427 38.0635 -45.3377 -60.1334 38.8102 28.4534 65.2294 0.0000 34.1364 0.2012 -0.4168 25.7701 32.8623 0.0000 -24.3270 -91.1206 -25.4358 26.9916 4.2772 -0.0000 -0.0000 -10.5632 14.0472 -17.1536 34.4620 0.0000 0.0000 -73.3416 -25.0769 -29.1901 -6.8890 0.0000 0.0000 -5.5043 -24.8919 26.0864 27.9368 0.0000 0.0000
 19.2789 29.7157 -16.2478 99.8896 -3.9774 152.6522 60.8940 -8.7021 -28.4631 -132.2180 -32.3191 -144.7713 -44.2085 -18.5256 -4.7355 -22.4635 -16.6198 -21.6653 -81.9384 0.0000 -84.0162 -0.5366 -4.2914 -7.1340 33.1476 -0.0000 26.2537 -16.5313 38.1999 -45.2983 -59.8119 38.7695 28.3476 65.2105 0.0000 34.0757 0.1982 -0.4116 25.7087 32.8623 0.0000 -24.3270 -91.0481 -25.4239 27.0146 4.2312 -0.0000 -0.0000 -10.5539 14.0677 -17.1389 34.4864 0.0000 0.0000 -73.3394 -25.0394 -29.2087 -6.8862 0.0000 -0.0000 -5.4788 -24.9012 26.1115 28.0185 -0.0000 -0.0000
 19.2780 29.7168 -16.2515 99.8926 -3.9960 152.6902 60.9262 -8.6701 -28.4791 -132.4818 -32.3514 -144.9522 -44.1615 -18.5706 -4.6791 -22.3705 -16.6299 -21.5946 -81.8523 0.0000 -84.0044 -0.5463 -4.3197 -7.2143 33.1476 -0.0000 26.2537 -16.6524 38.3431 -45.2543 -59.4750 38.6999 28.2247 65.2378 0.0000 34.0308 0.2026 -0.4209 25.7012 32.8623 0.0000 -24.3270 -90.9861 -25.4096 27.0180 4.1846 0.0000 0.0000 -10.5450 14.1211 -17.1510 34.4669 0.0000 0.0000 -73.3400 -24.9990 -29.2379 -6.8810 -0.0000 0.0000 -5.4569 -24.9181 26.1055 28.0961 0.0000 -0.0000
